PathFileType	4	(X/Y/Z)	../Python\running\Running08\task.trc
DataRate	CameraRate	NumFrames	NumMarkers	Units	OrigDataRate	OrigDataStartFrame	OrigNumFrames
200.000000	200.000000	4	30	mm	200.000000	102	204
Frame#	Time	C7			RBAK			CLAV			STRN			RASI			RPSI			LASI			PE01			RTH2			RTH3			RTB2			RD5M			RTOE			LTH3			LTB2			LTB3			LHEE			LTOE			LD5M			RTH1			RHEE			LPSI			PE02			RTB3			RTB1			PE03			T10			LTH2			LTH1			LTB1			
		X1	Y1	Z1	X2	Y2	Z2	X3	Y3	Z3	X4	Y4	Z4	X5	Y5	Z5	X6	Y6	Z6	X7	Y7	Z7	X8	Y8	Z8	X9	Y9	Z9	X10	Y10	Z10	X11	Y11	Z11	X12	Y12	Z12	X13	Y13	Z13	X14	Y14	Z14	X15	Y15	Z15	X16	Y16	Z16	X17	Y17	Z17	X18	Y18	Z18	X19	Y19	Z19	X20	Y20	Z20	X21	Y21	Z21	X22	Y22	Z22	X23	Y23	Z23	X24	Y24	Z24	X25	Y25	Z25	X26	Y26	Z26	X27	Y27	Z27	X28	Y28	Z28	X29	Y29	Z29	X30	Y30	Z30	

103	0.51	-77.63377380371097	1369.709838867188	165.3471221923829	-155.8444519042969	1281.019897460938	228.7159576416017	31.41280364990236	1282.834350585938	208.8409576416017	78.56063079833987	1101.034423828125	201.8465423583986	13.89874267578126	896.317260742188	285.8458251953126	-169.3907775878907	959.703979492188	213.5470733642579	29.5881690979004	867.0247192382817	67.74382781982425	-148.2833099365235	990.1486206054692	168.7600860595704	73.15954589843753	552.0529785156252	312.2721557617189	76.4463806152344	612.5508422851565	325.4601135253907	107.1774520874024	292.2188415527345	304.8934326171876	260.7668762207032	39.340389251709	275.0182495117189	291.5969543457032	65.12213897705081	232.4261322021486	-82.58877563476565	580.8436279296877	54.64245605468753	-410.023376464844	379.6895751953126	116.6808624267579	-364.9986572265626	358.5469970703126	111.6566848754883	-564.1204833984377	325.7636718750001	193.5346221923829	-514.808532714844	158.472396850586	175.1998596191407	-539.388366699219	184.3400268554688	127.7910156250001	25.77631950378419	613.566101074219	331.192108154297	116.2707290649415	78.28133392333987	212.7067260742189	-159.2058410644532	957.4575195312505	126.8410873413087	-181.4442901611329	940.2207031250005	194.7035064697267	149.0168609619141	265.4064025878907	296.931121826172	140.8436584472657	343.253631591797	305.694549560547	-177.5748748779297	935.7180175781255	144.3610534667969	-132.8760986328126	1087.555053710938	140.1411895751954	-163.2391510009766	572.8464965820315	60.26076889038089	-119.299789428711	614.897399902344	44.51582717895509	-340.6119384765626	413.8955688476565	97.46675109863287	
104	0.515	-61.99308776855472	1366.783935546875	165.7229003906251	-140.6198883056641	1277.493774414063	229.3786163330079	47.08617401123048	1279.987060546875	209.1662597656251	93.9290466308594	1097.679321289063	202.0748596191407	28.72269821166994	893.627075195313	286.9675903320314	-154.4310150146485	955.0104370117192	213.4661407470704	45.76464080810548	864.909545898438	68.42920684814456	-133.5984497070313	985.6708984375005	169.0093841552735	88.84706878662112	550.270202636719	312.5335388183595	91.93141174316409	610.9016723632815	325.3281250000001	117.3367309570313	288.5827636718751	303.9548950195314	265.2568969726564	33.99598693847658	272.902069091797	296.4019775390626	58.68079376220706	229.4129486083986	-62.62674713134768	577.4654541015627	53.73426437377933	-389.9392395019534	380.3782653808595	117.1411209106446	-345.4292907714845	358.2625122070314	111.4320220947266	-545.4023437500002	328.134490966797	195.2601776123048	-495.8828735351565	161.4220275878907	172.5798797607422	-520.840515136719	188.4038696289063	126.1086959838868	41.23141098022462	611.6733398437502	331.0307922363282	120.7983856201172	74.37957763671878	210.8508148193361	-144.2544250488282	953.1147460937505	126.9743957519532	-166.5410308837891	935.3967285156255	194.538299560547	158.4053802490235	260.7153320312501	295.5793457031251	152.3363647460938	338.6540527343751	305.063934326172	-162.450180053711	931.2201538085942	144.1762084960938	-117.7001495361329	1084.593139648438	140.0518646240235	-143.1385345458985	568.2507934570315	59.65778350830081	-99.86745452880865	610.950866699219	43.95557785034181	-319.8113098144532	413.2001037597659	97.72314453125006	
105	0.52	-46.35044097900392	1363.638916015625	166.1006011962891	-125.3882064819337	1273.703491210938	230.079071044922	62.82341384887698	1276.84765625	209.4748077392579	109.3559722900391	1093.988037109375	202.3626556396486	43.51791000366212	890.7158203125005	288.1140747070314	-139.4833068847657	950.0725097656255	213.3642578125001	61.87135314941409	862.5060424804692	69.12988281250003	-118.9665298461915	980.9523315429692	169.1732940673829	104.1893844604493	548.2039184570315	313.0215759277345	107.1508178710938	608.9722900390627	325.3868713378907	127.0973434448243	284.7381286621095	303.1246643066407	269.0791320800782	29.05646133422853	271.0566711425782	300.6129455566407	52.5497741699219	226.3824005126954	-42.68291473388673	573.9002075195315	52.67745208740237	-369.4153137207032	380.5003662109376	117.4761199951172	-325.4138488769532	357.5156860351564	111.0743789672852	-526.1299438476565	329.7384033203126	196.8367614746095	-476.164733886719	163.7568359375001	169.8275756835938	-501.520690917969	191.7950286865235	124.3048171997071	56.42383956909183	609.589050292969	330.9368286132814	124.424430847168	70.16179656982425	209.1752929687501	-129.3656311035157	948.4854125976567	127.0646743774415	-151.6747436523438	930.3352661132817	194.3619995117189	167.2680053710938	255.7651977539064	294.251678466797	163.4430541992188	333.7377319335939	304.446990966797	-147.3694000244141	926.4270629882817	143.9867401123047	-102.502784729004	1081.363891601563	139.9624938964844	-122.9931564331055	563.4790649414065	59.12259292602542	-80.46543884277347	606.837341308594	43.36569976806642	-298.675262451172	412.0604553222659	97.84991455078131	
106	0.525	-30.70508384704591	1360.289306640625	166.4865722656251	-110.1483383178712	1269.660278320313	230.8250274658204	78.6293869018555	1273.411254882813	209.7667694091798	124.8438568115235	1089.970092773438	202.7050628662111	58.28077316284183	887.6006469726567	289.2733154296876	-124.5562362670899	944.9486694335942	213.2348175048829	77.89013671875003	859.8115234375005	69.84122467041018	-104.3914489746094	976.0433959960942	169.2323913574219	119.1334609985352	545.7851562500002	313.7084350585939	122.0753936767579	606.6779785156252	325.6495361328126	136.4917602539063	280.7335815429689	302.4024047851564	272.2764892578126	24.67899894714357	269.5301513671876	304.2851562500001	46.92495727539064	223.4309387207032	-22.77230834960938	570.1299438476565	51.51417160034183	-348.4570617675782	380.0297241210939	117.6585388183594	-304.9456176757814	356.2822570800782	110.5752563476563	-506.3218688964846	330.5651245117189	198.2170257568361	-455.6703796386721	165.4509887695313	166.9879302978516	-481.4352111816409	194.4679565429689	122.3999099731446	71.32578277587893	607.2542114257815	330.9401245117189	127.1930694580079	65.69026184082034	207.6844024658204	-114.531723022461	943.6067504882817	127.0965194702149	-136.8524627685547	925.0923461914067	194.1653900146486	175.6339874267579	250.6218566894532	292.9370117187501	174.1789245605469	328.5627441406251	303.8152160644532	-132.3338623046876	921.3838500976567	143.7843170166016	-87.28532409667972	1077.881225585938	139.8841552734376	-102.8216629028321	558.5323486328127	58.65565872192386	-61.09285736083987	602.5463867187502	42.75704574584962	-277.2062072753907	410.4589538574221	97.82125854492193	
